<svg width="26" height="18" viewBox="0 0 26 18" fill="none" xmlns="http://www.w3.org/2000/svg">
<path d="M4.67414 17.4116H15.3677C17.8646 17.4116 19.3587 15.9585 19.3587 13.4616V12.0597L23.2268 15.3343C23.6361 15.672 24.0864 15.9074 24.5059 15.9074C25.4064 15.9074 26 15.2422 26 14.2905V3.70948C26 2.7578 25.4064 2.09265 24.5059 2.09265C24.0864 2.09265 23.6361 2.32801 23.2268 2.6657L19.3587 5.9403V4.52813C19.3587 2.04148 17.8646 0.588379 15.3677 0.588379H4.67414C2.28983 0.588379 0.683228 2.04148 0.683228 4.52813V13.4616C0.683228 15.9585 2.17726 17.4116 4.67414 17.4116ZM4.96067 15.8664C3.28244 15.8664 2.33076 14.9966 2.33076 13.2263V4.77372C2.33076 2.99316 3.28244 2.12335 4.96067 2.12335H15.0812C16.7492 2.12335 17.7111 2.99316 17.7111 4.77372V13.2263C17.7111 14.9966 16.7492 15.8664 15.0812 15.8664H4.96067ZM23.9943 13.9426L19.3587 10.1154V7.88459L23.9943 4.05741C24.0864 3.98577 24.1478 3.93461 24.2399 3.93461C24.3627 3.93461 24.4138 4.03694 24.4138 4.1802V13.8198C24.4138 13.9631 24.3627 14.0552 24.2399 14.0552C24.1478 14.0552 24.0864 14.004 23.9943 13.9426Z" fill="#007AFF"/>
</svg>
